<svg width="300" height="243" viewBox="0 0 300 243" fill="none" xmlns="http://www.w3.org/2000/svg">
<path d="M270.002 75.8317L113.931 141.959L288.621 119.777L270.002 75.8317Z" stroke="black" stroke-width="15"/>
<mask id="path-2-inside-1_1_30" fill="white">
<path fill-rule="evenodd" clip-rule="evenodd" d="M40 193C47.1797 193 53 187.18 53 180C53 176.983 51.9722 174.206 50.2477 172H274H299V197V203C299 225.091 281.091 243 259 243H61C38.9086 243 21 225.091 21 203V197V172H29.7523C28.0278 174.206 27 176.983 27 180C27 187.18 32.8203 193 40 193ZM46 197H274V203C274 211.284 267.284 218 259 218H61C52.7157 218 46 211.284 46 203V197Z"/>
</mask>
<path d="M50.2477 172V152H9.22593L34.4912 184.318L50.2477 172ZM299 172H319V152H299V172ZM21 172V152H1V172H21ZM29.7523 172L45.5088 184.318L70.7741 152H29.7523V172ZM274 197H294V177H274V197ZM46 197V177H26V197H46ZM33 180C33 176.134 36.134 173 40 173V213C58.2254 213 73 198.225 73 180H33ZM34.4912 184.318C33.5638 183.132 33 181.604 33 180H73C73 172.362 70.3806 165.28 66.0042 159.682L34.4912 184.318ZM274 152H50.2477V192H274V152ZM299 152H274V192H299V152ZM319 197V172H279V197H319ZM319 203V197H279V203H319ZM259 263C292.137 263 319 236.137 319 203H279C279 214.046 270.046 223 259 223V263ZM61 263H259V223H61V263ZM1 203C1 236.137 27.8629 263 61 263V223C49.9543 223 41 214.046 41 203H1ZM1 197V203H41V197H1ZM1 172V197H41V172H1ZM29.7523 152H21V192H29.7523V152ZM47 180C47 181.604 46.4362 183.132 45.5088 184.318L13.9958 159.682C9.61937 165.28 7 172.362 7 180H47ZM40 173C43.866 173 47 176.134 47 180H7C7 198.225 21.7746 213 40 213V173ZM274 177H46V217H274V177ZM294 203V197H254V203H294ZM259 238C278.33 238 294 222.33 294 203H254C254 200.239 256.239 198 259 198V238ZM61 238H259V198H61V238ZM26 203C26 222.33 41.67 238 61 238V198C63.7614 198 66 200.239 66 203H26ZM26 197V203H66V197H26Z" fill="black" mask="url(#path-2-inside-1_1_30)"/>
<mask id="path-4-inside-2_1_30" fill="white">
<path fill-rule="evenodd" clip-rule="evenodd" d="M34.5836 107.826L226.233 26.624C233.861 23.3921 242.664 26.9557 245.896 34.5836L260.721 69.5725L41.4488 162.478L26.624 127.489C23.3921 119.861 26.9558 111.057 34.5836 107.826ZM3.605 137.242C-5.01341 116.901 4.48956 93.4249 24.8305 84.8065L216.48 3.60497C236.821 -5.01344 260.297 4.48954 268.915 24.8305L283.74 59.8194L293.493 82.8384L270.474 92.5916L51.9219 185.192C52.6154 183.602 53 181.846 53 180C53 172.82 47.1797 167 40 167C32.8203 167 27 172.82 27 180C27 185.574 30.508 190.329 35.4367 192.177L28.1829 195.25L18.4298 172.231L3.605 137.242Z"/>
</mask>
<path d="M226.233 26.624L234.035 45.0393L234.035 45.0392L226.233 26.624ZM34.5836 107.826L26.7811 89.4103L26.7811 89.4103L34.5836 107.826ZM245.896 34.5836L264.311 26.7811L264.311 26.7811L245.896 34.5836ZM260.721 69.5725L268.523 87.9878L286.939 80.1853L279.136 61.77L260.721 69.5725ZM41.4488 162.478L23.0336 170.28L30.8361 188.696L49.2513 180.893L41.4488 162.478ZM26.624 127.489L45.0393 119.686L45.0393 119.686L26.624 127.489ZM24.8305 84.8065L17.028 66.3912L17.028 66.3912L24.8305 84.8065ZM3.605 137.242L22.0202 129.439L22.0202 129.439L3.605 137.242ZM216.48 3.60497L224.282 22.0202L224.282 22.0202L216.48 3.60497ZM268.915 24.8305L250.5 32.633L250.5 32.633L268.915 24.8305ZM283.74 59.8194L265.325 67.6219L265.325 67.6219L283.74 59.8194ZM293.493 82.8384L301.296 101.254L319.711 93.4512L311.908 75.0359L293.493 82.8384ZM270.474 92.5916L262.672 74.1763L262.672 74.1763L270.474 92.5916ZM51.9219 185.192L33.5893 177.197L13.5381 223.176L59.7244 203.607L51.9219 185.192ZM35.4367 192.177L43.2392 210.592L89.3798 191.042L42.4581 173.45L35.4367 192.177ZM28.1829 195.25L9.76765 203.052L17.5702 221.468L35.9854 213.665L28.1829 195.25ZM18.4298 172.231L0.0145215 180.033L0.014522 180.033L18.4298 172.231ZM218.43 8.20878L26.7811 89.4103L42.3861 126.241L234.035 45.0393L218.43 8.20878ZM264.311 26.7811C256.77 8.98275 236.229 0.667683 218.43 8.20878L234.035 45.0392C231.493 46.1166 228.558 44.9287 227.481 42.3861L264.311 26.7811ZM279.136 61.77L264.311 26.7811L227.481 42.3861L242.306 77.375L279.136 61.77ZM49.2513 180.893L268.523 87.9878L252.918 51.1573L33.6463 144.063L49.2513 180.893ZM8.20881 135.291L23.0336 170.28L59.864 154.675L45.0393 119.686L8.20881 135.291ZM26.7811 89.4103C8.9828 96.9514 0.667699 117.493 8.20881 135.291L45.0393 119.686C46.1166 122.229 44.9287 125.163 42.3861 126.241L26.7811 89.4103ZM17.028 66.3912C-13.4834 79.3188 -27.7378 114.533 -14.8102 145.044L22.0202 129.439C17.711 119.269 22.4625 107.531 32.633 103.222L17.028 66.3912ZM208.677 -14.8103L17.028 66.3912L32.633 103.222L224.282 22.0202L208.677 -14.8103ZM287.33 17.0279C274.403 -13.4834 239.189 -27.7379 208.677 -14.8103L224.282 22.0202C234.453 17.711 246.191 22.4625 250.5 32.633L287.33 17.0279ZM302.155 52.0169L287.33 17.0279L250.5 32.633L265.325 67.6219L302.155 52.0169ZM311.908 75.0359L302.155 52.0169L265.325 67.6219L275.078 90.641L311.908 75.0359ZM278.277 111.007L301.296 101.254L285.691 64.4232L262.672 74.1763L278.277 111.007ZM59.7244 203.607L278.277 111.007L262.672 74.1763L44.1194 166.777L59.7244 203.607ZM33 180C33 179.043 33.2037 178.081 33.5893 177.197L70.2545 193.187C72.027 189.122 73 184.648 73 180H33ZM40 187C36.134 187 33 183.866 33 180H73C73 161.775 58.2254 147 40 147V187ZM47 180C47 183.866 43.866 187 40 187V147C21.7746 147 7 161.775 7 180H47ZM42.4581 173.45C45.0806 174.433 47 176.967 47 180H7C7 194.181 15.9354 206.224 28.4153 210.904L42.4581 173.45ZM35.9854 213.665L43.2392 210.592L27.6342 173.761L20.3804 176.835L35.9854 213.665ZM0.014522 180.033L9.76765 203.052L46.5981 187.447L36.845 164.428L0.014522 180.033ZM-14.8102 145.044L0.0145215 180.033L36.845 164.428L22.0202 129.439L-14.8102 145.044Z" fill="black" mask="url(#path-4-inside-2_1_30)"/>
<mask id="path-6-inside-3_1_30" fill="white">
<path fill-rule="evenodd" clip-rule="evenodd" d="M40 207C54.9117 207 67 194.912 67 180C67 165.088 54.9117 153 40 153C25.0883 153 13 165.088 13 180C13 194.912 25.0883 207 40 207ZM40 193C47.1797 193 53 187.18 53 180C53 172.82 47.1797 167 40 167C32.8203 167 27 172.82 27 180C27 187.18 32.8203 193 40 193Z"/>
</mask>
<path d="M47 180C47 183.866 43.866 187 40 187V227C65.9574 227 87 205.957 87 180H47ZM40 173C43.866 173 47 176.134 47 180H87C87 154.043 65.9574 133 40 133V173ZM33 180C33 176.134 36.134 173 40 173V133C14.0426 133 -7 154.043 -7 180H33ZM40 187C36.134 187 33 183.866 33 180H-7C-7 205.957 14.0426 227 40 227V187ZM33 180C33 176.134 36.134 173 40 173V213C58.2254 213 73 198.225 73 180H33ZM40 187C36.134 187 33 183.866 33 180H73C73 161.775 58.2254 147 40 147V187ZM47 180C47 183.866 43.866 187 40 187V147C21.7746 147 7 161.775 7 180H47ZM40 173C43.866 173 47 176.134 47 180H7C7 198.225 21.7746 213 40 213V173Z" fill="black" mask="url(#path-6-inside-3_1_30)"/>
</svg>
